<svg width="600" height="600" viewBox="0 0 340 340" xmlns="http://www.w3.org/2000/svg">
<rect x="0" y="0" width="340" height="340" fill="#D85A30"/>

<g transform="translate(170,140) scale(1.7) rotate(-45)">

<!-- asterism lines -->
<g stroke="#042C53" stroke-width="2.2" stroke-linecap="round">
<line x1="0" y1="-52" x2="0" y2="5"/>
<line x1="0" y1="5" x2="0" y2="30"/>
<line x1="0" y1="30" x2="0" y2="54"/>
<line x1="-42" y1="-12" x2="0" y2="5"/>
<line x1="0" y1="5" x2="36" y2="-8"/>
</g>
<g stroke="#042C53" stroke-width="1.3" stroke-linecap="round" opacity="0.7">
<line x1="36" y1="-8" x2="50" y2="-20"/>
<line x1="-42" y1="-12" x2="-54" y2="-2"/>
</g>
<line x1="0" y1="30" x2="12" y2="20" stroke="#042C53" stroke-width="1" stroke-dasharray="2 3" opacity="0.7"/>

<!-- 9 stars -->
<circle cx="0" cy="-52" r="6.5" fill="#042C53"/>
<circle cx="0" cy="5" r="5" fill="#FFFFFF"/>
<circle cx="0" cy="30" r="3.2" fill="#042C53" opacity="0.85"/>
<circle cx="0" cy="54" r="6" fill="#042C53"/>
<circle cx="-42" cy="-12" r="4.2" fill="#042C53"/>
<circle cx="36" cy="-8" r="4" fill="#042C53"/>
<circle cx="50" cy="-20" r="2.4" fill="#042C53" opacity="0.75"/>
<circle cx="-54" cy="-2" r="2.2" fill="#042C53" opacity="0.75"/>
<circle cx="12" cy="20" r="2.6" fill="none" stroke="#042C53" stroke-width="1.1"/>

<!-- Cygnus X-1 bow shock -->
<path d="M20 10 Q30 20 20 30" fill="none" stroke="#042C53" stroke-width="1.4" opacity="0.8" stroke-linecap="round"/>
<path d="M24 6 Q38 20 24 34" fill="none" stroke="#042C53" stroke-width="0.8" opacity="0.45" stroke-linecap="round"/>

</g>

<text x="170" y="316" text-anchor="middle" fill="#042C53" font-family="Arial, sans-serif" font-size="20" font-weight="600" letter-spacing="0.5">cygnuswave.io</text>
<text x="170" y="336" text-anchor="middle" fill="#4A1B0C" font-family="Arial, sans-serif" font-size="12" letter-spacing="1">SOFTWARE</text>
</svg>
