<svg viewBox="0 0 340 340" xmlns="http://www.w3.org/2000/svg">
<rect width="340" height="340" fill="#D85A30" rx="48"/>
<g transform="translate(170,140) scale(1.7) rotate(-45)">
  <g stroke="#FFFFFF" stroke-width="4" stroke-linecap="round">
    <line x1="0" y1="-52" x2="0" y2="5"/>
    <line x1="0" y1="5" x2="0" y2="30"/>
    <line x1="0" y1="30" x2="0" y2="54"/>
    <line x1="-42" y1="-12" x2="0" y2="5"/>
    <line x1="0" y1="5" x2="36" y2="-8"/>
  </g>
  <g stroke="#FFFFFF" stroke-width="2.5" stroke-linecap="round" opacity="0.75">
    <line x1="36" y1="-8" x2="50" y2="-20"/>
    <line x1="-42" y1="-12" x2="-54" y2="-2"/>
  </g>
  <circle cx="0" cy="-52" r="7" fill="#FFFFFF"/>
  <circle cx="0" cy="5" r="10" fill="#FFFFFF"/>
  <circle cx="0" cy="30" r="5" fill="#FFFFFF" opacity="0.9"/>
  <circle cx="0" cy="54" r="7.5" fill="#FFFFFF"/>
  <circle cx="-42" cy="-12" r="6" fill="#FFFFFF"/>
  <circle cx="36" cy="-8" r="5.5" fill="#FFFFFF"/>
  <circle cx="50" cy="-20" r="3.5" fill="#FFFFFF" opacity="0.8"/>
  <circle cx="-54" cy="-2" r="3.5" fill="#FFFFFF" opacity="0.8"/>
  <circle cx="12" cy="20" r="3" fill="#FFFFFF" opacity="0.7"/>
</g>
</svg>
